# xmcd
# Track frame offsets:
# 150
# 18838
# 38224
# 58702
# 76004
# 97218
# 115998
# 135086
# 156130
# 174893
# 197090
# 212809
# 232258
# 263962
#
# Disc length: 3762 seconds
# Revision: 0
# Processed by: cddbd v1.4PL0 Copyright (c) Steve Scherf et al.
# Submitted via: VisiTrax 2.9.5.181 - For more info visit www.synapsa.com
#
DISCID=b70eb00e
DTITLE=J P Allen - None of this is true
DYEAR=2003
DGENRE=
TTITLE0=Big Buzz
TTITLE1=Sometimes I Feel
TTITLE2=(Feed It To) The Dog
TTITLE3=Yeah
TTITLE4=One Woman
TTITLE5=I Don't Want To Feel
TTITLE6=Earth Is Burning
TTITLE7=Heaven
TTITLE8=No Comfort
TTITLE9=Faith Has Been Broken
TTITLE10=I Fly
TTITLE11=None Of This Is True
TTITLE12=Long Day
TTITLE13=The Lighthouse
EXTD=
EXTT0=
EXTT1=
EXTT2=
EXTT3=
EXTT4=
EXTT5=
EXTT6=
EXTT7=
EXTT8=
EXTT9=
EXTT10=
EXTT11=
EXTT12=
EXTT13=
PLAYORDER=
